<svg xmlns="http://www.w3.org/2000/svg" xmlns:xlink="http://www.w3.org/1999/xlink" width="500" zoomAndPan="magnify" viewBox="0 0 375 374.999991" height="500" preserveAspectRatio="xMidYMid meet" version="1.0"><defs><g/><clipPath id="7e93c64a72"><path d="M 113 116 L 261 116 L 261 234.214844 L 113 234.214844 Z M 113 116 " clip-rule="nonzero"/></clipPath></defs><path fill="#ddd1c3" d="M 256.398438 163.9375 C 256.09375 162.953125 255.554688 161.988281 254.804688 161.046875 C 254.121094 160.121094 253.320312 159.332031 252.402344 158.691406 C 243.585938 151.578125 222.125 146.550781 197.035156 146.550781 C 165.402344 146.550781 139.53125 154.535156 137.507812 164.632812 C 136.730469 166.832031 136.332031 169.414062 136.296875 172.28125 C 132.566406 171.460938 125.359375 170.976562 119.835938 177.269531 C 112.046875 186.144531 117.710938 199.996094 125.679688 206.207031 C 132.488281 211.519531 145.753906 215.011719 155.214844 215.585938 C 157.042969 217.5625 158.910156 219.335938 160.78125 220.882812 C 162.28125 222.273438 164.121094 223.5625 166.253906 224.730469 C 167.90625 225.691406 169.535156 226.453125 171.113281 226.996094 C 178.152344 229.761719 187.183594 231.421875 197.035156 231.421875 C 206.585938 231.421875 215.363281 229.855469 222.3125 227.238281 C 224.832031 226.476562 227.488281 225.148438 230.175781 223.3125 C 230.839844 222.871094 231.472656 222.414062 232.058594 221.941406 C 237.96875 217.414062 243.914062 210.5625 248.769531 202.125 C 257.175781 187.527344 259.871094 172.484375 256.398438 163.9375 Z M 129.753906 199.105469 C 120.015625 188.84375 127.050781 177.507812 137.089844 180.480469 C 138.359375 187.207031 141.148438 194.71875 145.40625 202.125 C 146.53125 204.078125 147.71875 205.941406 148.945312 207.71875 C 144.089844 207.546875 136.328125 206.035156 129.753906 199.105469 Z M 211.191406 73.050781 C 211.191406 73.050781 206.621094 80.898438 212.207031 86.683594 C 217.792969 92.464844 223.25 103.203125 210.429688 116.5625 C 210.429688 116.5625 216.015625 104.582031 207.636719 97.144531 C 199.261719 89.710938 205.605469 78.007812 211.191406 73.050781 Z M 191.714844 73.050781 C 191.714844 73.050781 187.144531 80.898438 192.730469 86.683594 C 198.316406 92.464844 203.777344 103.203125 190.953125 116.5625 C 190.953125 116.5625 196.539062 104.582031 188.160156 97.144531 C 179.777344 89.710938 186.128906 78.007812 191.714844 73.050781 Z M 191.714844 73.050781 " fill-opacity="1" fill-rule="nonzero"/><path fill="#38220f" d="M 248.167969 167.679688 C 248.167969 159.246094 225.277344 152.410156 197.039062 152.410156 C 168.796875 152.410156 145.90625 159.246094 145.90625 167.679688 C 145.90625 169.308594 146.769531 170.878906 148.351562 172.351562 C 156.71875 178.074219 175.363281 182.0625 197.039062 182.0625 C 218.710938 182.0625 237.355469 178.074219 245.722656 172.351562 C 247.304688 170.882812 248.167969 169.308594 248.167969 167.679688 Z M 248.167969 167.679688 " fill-opacity="1" fill-rule="nonzero"/><path fill="#ffffff" d="M 250.625 177.71875 C 250.457031 178.933594 248.6875 179.820312 247.75 180.414062 C 244.539062 182.433594 241.136719 184.28125 237.554688 185.546875 C 233.054688 187.144531 228.375 188.121094 223.625 188.582031 C 222.523438 188.6875 221.589844 187.558594 221.589844 186.539062 C 221.589844 185.363281 222.53125 184.597656 223.625 184.496094 C 232.390625 183.679688 241.027344 180.765625 248.601562 176.289062 C 249.625 175.6875 250.785156 176.570312 250.625 177.71875 Z M 219.445312 187.28125 C 219.441406 187.191406 219.433594 187.097656 219.414062 187.007812 C 219.128906 185.570312 217.492188 185.601562 216.351562 185.542969 C 214.957031 185.472656 213.5625 185.542969 212.175781 185.679688 C 211.015625 185.796875 209.664062 185.808594 208.976562 186.910156 C 208.066406 188.371094 209.144531 190.558594 210.929688 190.484375 C 213.109375 190.394531 215.664062 190.347656 217.714844 189.523438 C 218.554688 189.183594 219.46875 188.277344 219.445312 187.28125 Z M 219.445312 187.28125 " fill-opacity="1" fill-rule="nonzero"/><path fill="#967259" d="M 219.335938 159.882812 C 218.804688 158.371094 218.257812 156.867188 217.636719 155.371094 C 215.488281 150.179688 213.074219 145.085938 210.089844 140.320312 C 204.800781 131.878906 197.632812 124.234375 188.574219 119.871094 C 179.484375 115.488281 168.734375 114.789062 159.457031 119.035156 C 150.597656 123.089844 144.773438 131.851562 142.695312 141.203125 C 141.414062 146.964844 141.554688 152.855469 142.738281 158.617188 C 143.363281 161.679688 144.367188 164.667969 145.558594 167.550781 C 146.109375 168.894531 146.726562 170.183594 147.382812 171.449219 C 147.910156 171.820312 148.5 172.171875 149.128906 172.511719 C 153.3125 174.765625 159.644531 176.414062 167.230469 177.535156 C 166.425781 181.0625 166.738281 185.015625 168.117188 188.039062 C 170.65625 193.605469 174.667969 195.082031 177.445312 193.484375 C 180.21875 191.890625 178.269531 188.515625 178.210938 182.242188 C 178.199219 180.941406 178.375 179.785156 178.65625 178.761719 C 182.488281 179.042969 186.488281 179.226562 190.574219 179.3125 C 202.734375 179.566406 215.085938 175.105469 218.492188 166.300781 C 219.234375 164.367188 219.546875 162.230469 219.335938 159.882812 Z M 219.335938 159.882812 " fill-opacity="1" fill-rule="nonzero"/><path fill="#7b4e37" d="M 218.488281 166.300781 C 215.082031 175.105469 202.730469 179.566406 190.574219 179.3125 C 186.484375 179.226562 182.484375 179.042969 178.652344 178.757812 C 178.371094 179.78125 178.195312 180.9375 178.207031 182.238281 C 178.269531 188.511719 180.214844 191.886719 177.441406 193.484375 C 174.667969 195.082031 170.652344 193.601562 168.113281 188.039062 C 166.734375 185.007812 166.429688 181.054688 167.242188 177.527344 C 159.65625 176.410156 153.3125 174.765625 149.125 172.507812 C 148.496094 172.167969 147.90625 171.816406 147.375 171.449219 C 146.722656 170.179688 146.105469 168.890625 145.550781 167.546875 C 144.363281 164.660156 143.359375 161.675781 142.730469 158.613281 C 141.550781 152.851562 141.410156 146.960938 142.691406 141.199219 C 143.949219 135.53125 146.59375 130.089844 150.449219 125.769531 C 157.546875 121.78125 159.214844 123.433594 157.992188 124.269531 C 150.820312 129.148438 148.746094 138.300781 149.015625 142.363281 C 149.285156 146.441406 150.140625 150.449219 151.445312 154.320312 C 152.859375 158.519531 154.789062 162.773438 157.792969 166.082031 C 159.488281 167.945312 161.65625 169.550781 164.136719 170.140625 C 166.433594 170.6875 168.78125 170.363281 171.097656 170.054688 C 170.441406 170.84375 169.863281 171.695312 169.378906 172.601562 C 169.386719 172.597656 169.390625 172.585938 169.394531 172.582031 C 168.894531 173.519531 168.492188 174.507812 168.21875 175.535156 C 168.042969 176.183594 167.914062 176.890625 167.839844 177.613281 C 167.839844 177.613281 167.835938 177.613281 167.832031 177.613281 C 167.664062 179.277344 167.847656 181.03125 168.75 182.375 C 170.058594 184.320312 172.332031 183.722656 173.542969 181.988281 C 174.554688 180.542969 174.890625 178.710938 175.757812 177.1875 C 175.765625 177.171875 175.777344 177.152344 175.785156 177.136719 C 175.832031 177.054688 175.878906 176.980469 175.925781 176.898438 C 175.953125 176.859375 175.980469 176.816406 176.011719 176.777344 C 176.050781 176.714844 176.089844 176.65625 176.132812 176.59375 C 176.179688 176.535156 176.222656 176.476562 176.269531 176.417969 C 176.300781 176.378906 176.332031 176.332031 176.367188 176.292969 C 176.453125 176.191406 176.542969 176.089844 176.632812 175.992188 C 176.726562 175.898438 176.824219 175.804688 176.917969 175.707031 C 176.960938 175.664062 177.007812 175.617188 177.054688 175.574219 C 177.105469 175.527344 177.152344 175.480469 177.203125 175.433594 C 177.265625 175.371094 177.335938 175.308594 177.402344 175.246094 C 177.429688 175.222656 177.457031 175.195312 177.480469 175.171875 C 179.007812 173.777344 180.949219 172.460938 182.980469 172.257812 C 181.964844 175.15625 186.367188 175.167969 188.089844 175.320312 C 189.964844 175.484375 194.679688 175.191406 196.542969 174.878906 C 199.953125 174.300781 201.058594 173.28125 201.457031 172.347656 C 202.066406 170.921875 201.238281 170.082031 200.84375 168.621094 C 200.417969 167.035156 197.472656 161.085938 196.761719 159.609375 C 198.53125 161.335938 201.960938 166.582031 203.21875 167.9375 C 204.613281 169.433594 205.222656 171.339844 207.433594 171.105469 C 210.238281 170.808594 213.867188 168.273438 215.46875 166.097656 C 217.246094 163.683594 218.101562 160.914062 218.480469 157.972656 C 218.496094 157.863281 218.503906 157.75 218.515625 157.640625 C 218.792969 158.386719 219.0625 159.136719 219.328125 159.886719 C 219.546875 162.230469 219.234375 164.367188 218.488281 166.300781 Z M 223.890625 170.820312 C 222.515625 172.679688 220.289062 174.089844 218.207031 175 C 217.136719 175.46875 215.007812 176.378906 213.84375 175.894531 C 212.390625 175.289062 215.460938 174.496094 215.902344 174.289062 C 217.082031 173.726562 218.136719 172.910156 219.015625 171.941406 C 220.722656 170.050781 221.785156 167.511719 221.78125 164.972656 C 221.777344 164.085938 222.367188 162.476562 223.535156 163.359375 C 226.191406 165.375 225.089844 169.199219 223.890625 170.820312 Z M 232.617188 166.9375 C 232.238281 165.960938 230.839844 165.152344 229.800781 165.210938 C 229.460938 165.226562 229.058594 165.503906 229.164062 165.851562 C 229.730469 167.742188 228.683594 169.707031 227.65625 171.339844 C 227.148438 172.140625 226.511719 172.75 225.855469 173.417969 C 225.625 173.652344 225.0625 174.179688 225.1875 174.558594 C 225.414062 175.222656 226.570312 174.761719 226.964844 174.5625 C 229.375 173.332031 233.875 170.191406 232.617188 166.9375 Z M 232.617188 166.9375 " fill-opacity="1" fill-rule="nonzero"/><g clip-path="url(#7e93c64a72)"><path fill="#000000" d="M 137.089844 180.480469 C 135.980469 180.152344 134.910156 180 133.894531 180 C 125.703125 180 121.089844 189.980469 129.753906 199.109375 C 136.328125 206.039062 144.089844 207.550781 148.945312 207.71875 C 147.71875 205.941406 146.53125 204.082031 145.40625 202.125 C 141.144531 194.722656 138.355469 187.207031 137.089844 180.480469 Z M 131.722656 197.230469 C 128.234375 193.558594 126.972656 189.457031 128.34375 186.253906 C 129.289062 184.039062 131.363281 182.722656 133.894531 182.722656 C 134.1875 182.722656 134.484375 182.738281 134.789062 182.773438 C 136.289062 189.546875 139.128906 196.664062 143.054688 203.484375 C 143.191406 203.722656 143.332031 203.960938 143.472656 204.199219 C 139.703125 203.230469 135.496094 201.210938 131.722656 197.230469 Z M 258.953125 163.011719 C 258.550781 161.769531 257.878906 160.550781 256.957031 159.386719 C 256.117188 158.257812 255.136719 157.289062 254.03125 156.511719 C 246.441406 150.441406 230.964844 146.066406 212.511719 144.480469 C 211.746094 143.070312 210.945312 141.679688 210.089844 140.316406 C 204.800781 131.875 197.632812 124.234375 188.574219 119.867188 C 179.484375 115.484375 168.734375 114.785156 159.457031 119.03125 C 150.597656 123.085938 144.773438 131.847656 142.695312 141.199219 C 141.683594 145.753906 141.5625 150.390625 142.140625 154.980469 C 138.234375 157.527344 135.644531 160.503906 134.890625 163.894531 C 134.34375 165.488281 133.96875 167.246094 133.765625 169.152344 C 133.175781 169.105469 132.589844 169.082031 132.007812 169.082031 C 126.378906 169.082031 121.464844 171.289062 117.800781 175.464844 C 114.480469 179.253906 112.996094 184.085938 113.503906 189.449219 C 114.160156 196.46875 118.289062 203.890625 124.015625 208.359375 C 131.109375 213.890625 144.207031 217.441406 153.96875 218.222656 C 155.617188 219.945312 157.304688 221.527344 159 222.933594 C 160.632812 224.441406 162.628906 225.839844 164.921875 227.101562 C 166.703125 228.136719 168.472656 228.957031 170.179688 229.550781 C 177.746094 232.511719 187.28125 234.140625 197.035156 234.140625 C 206.59375 234.140625 215.632812 232.644531 223.183594 229.816406 C 225.9375 228.972656 228.800781 227.539062 231.703125 225.558594 C 232.414062 225.082031 233.105469 224.585938 233.730469 224.085938 C 240.117188 219.183594 246.292969 211.871094 251.121094 203.480469 C 259.738281 188.519531 262.808594 172.65625 258.953125 163.011719 Z M 248.769531 202.125 C 243.914062 210.5625 237.96875 217.414062 232.058594 221.941406 C 231.46875 222.410156 230.839844 222.867188 230.175781 223.3125 C 227.488281 225.148438 224.832031 226.476562 222.3125 227.238281 C 215.367188 229.855469 206.589844 231.421875 197.035156 231.421875 C 187.1875 231.421875 178.15625 229.761719 171.113281 226.996094 C 169.53125 226.453125 167.90625 225.695312 166.253906 224.730469 C 164.125 223.5625 162.28125 222.269531 160.78125 220.882812 C 158.910156 219.339844 157.042969 217.566406 155.214844 215.585938 C 145.753906 215.011719 132.488281 211.519531 125.679688 206.207031 C 117.710938 199.996094 112.046875 186.144531 119.835938 177.269531 C 123.65625 172.917969 128.28125 171.808594 132.003906 171.808594 C 133.664062 171.808594 135.148438 172.027344 136.296875 172.28125 C 136.328125 169.414062 136.730469 166.832031 137.507812 164.632812 C 137.984375 162.273438 139.761719 160.03125 142.609375 157.976562 C 142.652344 158.1875 142.691406 158.398438 142.734375 158.613281 C 143.046875 160.148438 143.453125 161.664062 143.933594 163.15625 C 143.910156 163.199219 143.882812 163.242188 143.859375 163.289062 C 143.210938 164.539062 143.046875 166.105469 143.472656 167.515625 C 143.886719 168.933594 144.765625 170.140625 145.738281 171.164062 C 146.71875 172.199219 147.84375 173.054688 149.003906 173.828125 C 153.710938 176.847656 158.976562 178.632812 164.253906 180.042969 C 164.734375 180.167969 165.210938 180.285156 165.695312 180.402344 C 165.378906 183.835938 166.457031 187.515625 168.304688 190.378906 C 170.046875 193.085938 173.195312 196.242188 176.75 195.097656 C 178.238281 194.621094 179.324219 193.339844 179.726562 191.855469 C 180.261719 189.902344 179.699219 187.941406 179.472656 185.988281 C 179.351562 184.953125 179.273438 183.886719 179.269531 182.816406 C 185.046875 183.511719 190.867188 183.832031 196.675781 183.871094 C 202.121094 183.84375 207.570312 183.601562 212.992188 183.035156 C 218.40625 182.402344 223.8125 181.585938 229.113281 180.203125 C 234.402344 178.84375 239.660156 177.078125 244.433594 174.203125 C 245.601562 173.449219 246.738281 172.625 247.773438 171.660156 C 248.796875 170.699219 249.746094 169.574219 250.296875 168.21875 C 250.847656 166.878906 250.957031 165.3125 250.453125 163.980469 C 249.957031 162.640625 249.03125 161.574219 248.023438 160.6875 C 248.910156 161.699219 249.652344 162.871094 249.9375 164.136719 C 250.242188 165.394531 249.988281 166.695312 249.398438 167.789062 C 248.152344 169.992188 245.84375 171.453125 243.558594 172.65625 C 238.867188 175.015625 233.679688 176.367188 228.488281 177.449219 C 223.273438 178.46875 217.984375 179.191406 212.667969 179.617188 C 207.355469 180.058594 202.019531 180.285156 196.683594 180.242188 C 191.347656 180.257812 186.011719 180.023438 180.703125 179.542969 C 180.3125 179.507812 179.929688 179.472656 179.539062 179.433594 C 179.542969 179.421875 179.542969 179.410156 179.546875 179.398438 C 179.957031 177.140625 180.945312 175.285156 182.214844 173.410156 C 182.355469 173.207031 182.082031 172.949219 181.882812 173.078125 C 177.886719 175.59375 177.003906 180.582031 177.351562 184.949219 C 177.492188 186.703125 178.03125 188.484375 177.964844 190.242188 C 177.898438 191.941406 176.847656 193.011719 175.125 192.914062 C 173.519531 192.820312 172.238281 191.601562 171.261719 190.429688 C 169.246094 188.011719 168.078125 184.859375 167.996094 181.71875 C 167.949219 179.953125 168.113281 178.191406 168.617188 176.5 C 169.148438 174.691406 169.882812 172.742188 171.039062 171.25 C 171.304688 170.90625 170.871094 170.421875 170.542969 170.753906 C 169.28125 172.027344 168.03125 173.289062 167.253906 174.917969 C 166.847656 175.765625 166.511719 176.644531 166.25 177.542969 C 165.800781 177.457031 165.351562 177.371094 164.902344 177.28125 C 162.300781 176.742188 159.730469 176.074219 157.207031 175.289062 C 154.691406 174.492188 152.207031 173.5625 149.925781 172.296875 C 149.546875 172.09375 149.175781 171.875 148.808594 171.652344 C 148.335938 170.390625 147.894531 169.121094 147.472656 167.859375 C 146.660156 165.417969 145.945312 162.90625 145.46875 160.378906 C 144.511719 155.316406 144.003906 150.117188 144.699219 144.984375 C 145.363281 140.101562 147.078125 135.246094 149.796875 131.097656 C 152.117188 128.0625 155.414062 124.933594 159.796875 123.464844 C 169.710938 120.148438 178.089844 127.726562 182.578125 134.117188 C 182.578125 134.117188 176.902344 124.148438 173.132812 121.691406 C 171.78125 120.8125 172.597656 119.738281 174.667969 119.355469 C 178.351562 119.640625 182.003906 120.539062 185.351562 121.9375 C 193.929688 125.507812 200.871094 132.351562 206.011719 139.976562 C 209.277344 144.820312 211.917969 150.078125 214.191406 155.460938 C 215.382812 158.285156 216.605469 161.136719 217.671875 164.007812 C 217.953125 164.765625 218.21875 165.53125 218.488281 166.292969 C 219.234375 164.363281 219.546875 162.21875 219.335938 159.875 C 218.804688 158.363281 218.257812 156.855469 217.636719 155.363281 C 216.515625 152.648438 215.316406 149.96875 214.007812 147.34375 C 231.515625 149.023438 245.660156 153.242188 252.40625 158.6875 C 253.324219 159.324219 254.125 160.113281 254.808594 161.042969 C 255.554688 161.980469 256.09375 162.945312 256.402344 163.933594 C 259.871094 172.484375 257.175781 187.527344 248.769531 202.125 Z M 144.214844 163.988281 C 144.625 165.191406 145.074219 166.378906 145.558594 167.550781 C 145.925781 168.445312 146.324219 169.3125 146.738281 170.167969 C 146.730469 170.160156 146.722656 170.15625 146.714844 170.144531 C 145.75 169.308594 144.917969 168.328125 144.425781 167.183594 C 144 166.195312 143.925781 165.066406 144.214844 163.988281 Z M 185.867188 156.296875 C 185.050781 155.894531 183.734375 155.28125 183.472656 154.324219 C 183.035156 152.710938 184.980469 153.964844 185.605469 154.222656 C 186.972656 154.789062 188.484375 155.125 189.960938 155.238281 C 192.960938 155.472656 195.957031 154.542969 197.824219 152.070312 C 198.621094 151.011719 199.292969 149.480469 199.308594 148.136719 C 199.3125 147.707031 199.953125 147.609375 200.058594 148.035156 C 200.214844 148.6875 200.355469 149.265625 200.316406 149.9375 C 199.90625 156.746094 191.101562 158.871094 185.867188 156.296875 Z M 182.238281 148.328125 C 182.496094 149.03125 182.433594 150.136719 181.636719 150.5 C 180.648438 150.945312 180.019531 149.3125 179.601562 148.703125 C 179.085938 147.953125 178.4375 147.453125 177.492188 147.476562 C 175.847656 147.515625 174.839844 149.097656 174.363281 150.5 C 174.160156 151.097656 174.183594 152.019531 173.640625 152.421875 C 173.109375 152.8125 172.398438 152.597656 172.074219 152.050781 C 171.425781 150.957031 172.152344 149.449219 172.730469 148.480469 C 173.378906 147.394531 174.300781 146.453125 175.4375 145.882812 C 177.355469 144.925781 179.84375 145.050781 181.304688 146.753906 C 181.710938 147.226562 182.019531 147.734375 182.238281 148.328125 Z M 195.207031 144.601562 C 195.183594 142.917969 195.890625 140.667969 197.359375 139.664062 C 198.429688 138.933594 199.960938 139.070312 200.882812 139.980469 C 201.269531 140.363281 201.675781 140.953125 201.878906 141.574219 C 202.074219 142.164062 202.082031 142.777344 201.722656 143.261719 C 201.285156 143.847656 200.839844 143.539062 200.621094 143.359375 C 200 142.863281 200.117188 141.945312 199.734375 141.316406 C 199.070312 140.230469 198.027344 141.066406 197.5625 141.761719 C 197.058594 142.519531 196.863281 143.574219 196.679688 144.46875 C 196.417969 145.753906 195.222656 145.578125 195.207031 144.601562 Z M 197.800781 161.703125 C 203.144531 169.203125 205.460938 174.609375 206.28125 176.816406 C 205.402344 177.144531 204.5 177.441406 203.574219 177.707031 C 203.25 172.199219 197.800781 161.703125 197.800781 161.703125 Z M 197.800781 161.703125 " fill-opacity="1" fill-rule="nonzero"/></g><g fill="#382210" fill-opacity="1"><g transform="translate(101.807815, 275.381534)"><g><path d="M 9.800781 0 C 11.265625 0 12.730469 -0.488281 14.082031 -1.539062 L 14.121094 -1.539062 C 16.183594 -3.230469 16.898438 -6.160156 17.125 -7.324219 C 17.199219 -7.699219 17.234375 -8.109375 17.273438 -8.710938 L 17.273438 -8.824219 C 17.273438 -9.351562 17.199219 -9.800781 16.972656 -10.214844 C 16.671875 -10.703125 16.222656 -11.003906 15.621094 -11.003906 L 15.546875 -11.003906 C 14.195312 -10.816406 13.929688 -9.425781 13.78125 -8.074219 C 13.480469 -6.382812 13.105469 -4.882812 11.753906 -3.980469 C 11.378906 -3.832031 11.078125 -3.753906 10.777344 -3.753906 C 10.402344 -3.753906 10.0625 -3.867188 9.761719 -4.09375 C 8.488281 -5.257812 7.847656 -7.585938 7.585938 -8.863281 C 7.324219 -9.988281 7.136719 -11.492188 6.984375 -13.292969 C 6.871094 -14.195312 6.796875 -15.207031 6.796875 -16.410156 C 6.796875 -17.234375 6.835938 -18.023438 6.871094 -18.851562 C 7.023438 -20.917969 7.398438 -22.570312 7.921875 -23.882812 C 8.523438 -25.273438 9.351562 -26.25 10.363281 -26.699219 L 10.664062 -26.8125 L 10.925781 -26.886719 L 10.964844 -26.886719 C 11.117188 -26.960938 11.339844 -27 11.492188 -27 C 11.828125 -27 12.089844 -26.886719 12.390625 -26.660156 L 12.765625 -26.25 C 13.03125 -25.835938 13.253906 -25.234375 13.445312 -24.519531 C 13.78125 -23.09375 14.308594 -21.554688 15.660156 -21.328125 L 15.695312 -21.328125 C 16.035156 -21.328125 16.671875 -21.441406 16.898438 -22.082031 C 17.046875 -22.457031 17.125 -22.867188 17.125 -23.28125 L 17.125 -23.394531 C 17.125 -23.882812 17.085938 -24.222656 17.011719 -24.558594 C 16.558594 -26.773438 15.773438 -28.351562 14.683594 -29.253906 C 13.742188 -30.003906 12.390625 -30.453125 10.664062 -30.453125 C 10.328125 -30.453125 9.988281 -30.453125 9.574219 -30.417969 C 7.921875 -30.191406 6.535156 -29.515625 5.40625 -28.539062 C 4.394531 -27.601562 3.566406 -26.398438 3.003906 -24.859375 C 2.441406 -23.355469 2.027344 -21.816406 1.839844 -20.351562 C 1.652344 -19 1.539062 -17.3125 1.503906 -15.394531 L 1.503906 -14.90625 C 1.503906 -13.144531 1.613281 -11.339844 1.914062 -9.3125 C 2.253906 -7.136719 2.855469 -5.257812 3.679688 -3.792969 C 4.617188 -2.140625 5.820312 -0.976562 7.324219 -0.414062 C 8.074219 -0.148438 8.9375 0 9.800781 0 Z M 9.800781 0 "/></g></g></g><g fill="#382210" fill-opacity="1"><g transform="translate(119.831058, 275.381534)"><g><path d="M 10.027344 0 C 11.265625 0 12.355469 -0.261719 13.253906 -0.789062 C 14.457031 -1.464844 15.507812 -2.515625 16.335938 -3.867188 C 17.046875 -5.03125 17.648438 -6.457031 18.0625 -8.074219 L 18.0625 -8.109375 C 18.589844 -10.628906 18.886719 -13.105469 18.886719 -15.472656 C 18.886719 -17.199219 18.738281 -19 18.4375 -20.953125 C 18.210938 -22.34375 17.875 -23.65625 17.425781 -24.820312 C 16.859375 -26.210938 16.148438 -27.375 15.285156 -28.277344 C 14.308594 -29.253906 13.03125 -29.816406 11.414062 -30.003906 C 11.078125 -30.042969 10.738281 -30.078125 10.402344 -30.078125 C 9.238281 -30.078125 8.1875 -29.890625 7.246094 -29.441406 C 6.046875 -28.953125 5.03125 -28.089844 4.128906 -26.773438 L 4.09375 -26.773438 C 3.003906 -25.085938 2.289062 -23.132812 1.914062 -20.765625 C 1.613281 -19.1875 1.503906 -17.5 1.503906 -15.734375 C 1.503906 -15.132812 1.539062 -14.53125 1.578125 -13.855469 L 1.578125 -13.742188 C 1.691406 -11.378906 2.027344 -9.273438 2.554688 -7.433594 C 3.265625 -4.804688 4.207031 -2.929688 5.445312 -1.691406 C 6.234375 -0.902344 7.246094 -0.375 8.488281 -0.1875 C 8.976562 -0.0742188 9.5 0 10.027344 0 Z M 6.984375 -15.921875 C 6.984375 -16.410156 6.984375 -16.9375 7.023438 -17.460938 C 7.136719 -19.753906 7.433594 -21.628906 7.886719 -23.167969 C 8.410156 -24.632812 9.351562 -25.871094 10.363281 -26.472656 C 10.664062 -26.660156 11.003906 -26.738281 11.339844 -26.738281 C 11.566406 -26.738281 11.867188 -26.699219 12.167969 -26.585938 C 13.144531 -26.136719 13.894531 -25.121094 14.417969 -23.507812 C 14.90625 -22.042969 15.207031 -20.128906 15.285156 -17.800781 C 15.320312 -17.199219 15.320312 -16.636719 15.320312 -16.035156 C 15.320312 -14.683594 15.285156 -13.253906 15.132812 -11.753906 C 14.984375 -10.214844 14.757812 -8.488281 14.457031 -7.359375 L 14.230469 -6.757812 C 13.855469 -5.78125 13.332031 -4.996094 12.65625 -4.355469 C 12.128906 -3.832031 11.601562 -3.566406 11.039062 -3.566406 C 11.003906 -3.566406 10.964844 -3.566406 10.925781 -3.605469 L 10.816406 -3.605469 C 10.175781 -3.679688 9.539062 -4.28125 8.9375 -5.40625 C 8.1875 -6.835938 7.660156 -8.636719 7.324219 -10.851562 C 7.097656 -12.542969 6.984375 -14.230469 6.984375 -15.921875 Z M 6.984375 -15.921875 "/></g></g></g><g fill="#382210" fill-opacity="1"><g transform="translate(140.219848, 275.381534)"><g><path d="M 10.027344 0 C 11.265625 0 12.355469 -0.261719 13.253906 -0.789062 C 14.457031 -1.464844 15.507812 -2.515625 16.335938 -3.867188 C 17.046875 -5.03125 17.648438 -6.457031 18.0625 -8.074219 L 18.0625 -8.109375 C 18.589844 -10.628906 18.886719 -13.105469 18.886719 -15.472656 C 18.886719 -17.199219 18.738281 -19 18.4375 -20.953125 C 18.210938 -22.34375 17.875 -23.65625 17.425781 -24.820312 C 16.859375 -26.210938 16.148438 -27.375 15.285156 -28.277344 C 14.308594 -29.253906 13.03125 -29.816406 11.414062 -30.003906 C 11.078125 -30.042969 10.738281 -30.078125 10.402344 -30.078125 C 9.238281 -30.078125 8.1875 -29.890625 7.246094 -29.441406 C 6.046875 -28.953125 5.03125 -28.089844 4.128906 -26.773438 L 4.09375 -26.773438 C 3.003906 -25.085938 2.289062 -23.132812 1.914062 -20.765625 C 1.613281 -19.1875 1.503906 -17.5 1.503906 -15.734375 C 1.503906 -15.132812 1.539062 -14.53125 1.578125 -13.855469 L 1.578125 -13.742188 C 1.691406 -11.378906 2.027344 -9.273438 2.554688 -7.433594 C 3.265625 -4.804688 4.207031 -2.929688 5.445312 -1.691406 C 6.234375 -0.902344 7.246094 -0.375 8.488281 -0.1875 C 8.976562 -0.0742188 9.5 0 10.027344 0 Z M 6.984375 -15.921875 C 6.984375 -16.410156 6.984375 -16.9375 7.023438 -17.460938 C 7.136719 -19.753906 7.433594 -21.628906 7.886719 -23.167969 C 8.410156 -24.632812 9.351562 -25.871094 10.363281 -26.472656 C 10.664062 -26.660156 11.003906 -26.738281 11.339844 -26.738281 C 11.566406 -26.738281 11.867188 -26.699219 12.167969 -26.585938 C 13.144531 -26.136719 13.894531 -25.121094 14.417969 -23.507812 C 14.90625 -22.042969 15.207031 -20.128906 15.285156 -17.800781 C 15.320312 -17.199219 15.320312 -16.636719 15.320312 -16.035156 C 15.320312 -14.683594 15.285156 -13.253906 15.132812 -11.753906 C 14.984375 -10.214844 14.757812 -8.488281 14.457031 -7.359375 L 14.230469 -6.757812 C 13.855469 -5.78125 13.332031 -4.996094 12.65625 -4.355469 C 12.128906 -3.832031 11.601562 -3.566406 11.039062 -3.566406 C 11.003906 -3.566406 10.964844 -3.566406 10.925781 -3.605469 L 10.816406 -3.605469 C 10.175781 -3.679688 9.539062 -4.28125 8.9375 -5.40625 C 8.1875 -6.835938 7.660156 -8.636719 7.324219 -10.851562 C 7.097656 -12.542969 6.984375 -14.230469 6.984375 -15.921875 Z M 6.984375 -15.921875 "/></g></g></g><g fill="#382210" fill-opacity="1"><g transform="translate(160.608638, 275.381534)"><g><path d="M 8.488281 0 L 9.273438 0 C 9.652344 0 10.101562 0 10.550781 -0.0390625 C 11.152344 -0.0742188 11.714844 -0.261719 12.167969 -0.5625 L 12.203125 -0.5625 C 12.617188 -0.863281 12.84375 -1.277344 12.84375 -1.839844 L 12.84375 -2.179688 C 12.691406 -2.855469 12.316406 -3.265625 11.679688 -3.492188 C 11.265625 -3.566406 10.890625 -3.605469 10.402344 -3.605469 L 9.726562 -3.605469 C 9.351562 -3.605469 9.011719 -3.640625 8.710938 -3.71875 C 8.109375 -3.980469 7.699219 -4.695312 7.398438 -5.820312 C 7.136719 -6.871094 7.058594 -8.148438 6.984375 -9.425781 L 6.984375 -9.800781 C 6.910156 -11.601562 6.871094 -13.367188 6.871094 -15.097656 C 6.871094 -17.574219 6.945312 -20.164062 7.097656 -22.980469 C 7.136719 -23.207031 7.359375 -25.574219 7.398438 -26.4375 C 7.398438 -27.1875 7.246094 -27.824219 6.945312 -28.425781 C 6.609375 -29.101562 6.007812 -29.476562 5.144531 -29.664062 L 5.105469 -29.664062 L 4.957031 -29.703125 C 4.730469 -29.742188 4.582031 -29.742188 4.394531 -29.742188 C 3.71875 -29.742188 3.191406 -29.589844 2.855469 -29.253906 C 1.953125 -28.3125 1.839844 -25.160156 1.691406 -22.230469 C 1.578125 -18.851562 1.503906 -15.960938 1.503906 -13.445312 L 1.503906 -13.179688 C 1.503906 -10.363281 1.726562 -7.847656 2.140625 -5.632812 C 2.515625 -3.378906 3.230469 -1.878906 4.207031 -1.089844 C 5.070312 -0.339844 6.496094 0 8.488281 0 Z M 8.488281 0 "/></g></g></g><g fill="#382210" fill-opacity="1"><g transform="translate(173.825683, 275.381534)"><g/></g></g><g fill="#382210" fill-opacity="1"><g transform="translate(185.841179, 275.381534)"><g><path d="M 6.195312 0.226562 C 6.871094 0.226562 7.546875 0.148438 8.261719 0.0390625 C 10.140625 -0.375 11.753906 -1.089844 12.957031 -2.066406 C 14.121094 -2.890625 14.945312 -3.941406 15.433594 -5.21875 C 15.808594 -6.160156 16.035156 -7.136719 16.035156 -8.109375 C 16.035156 -8.335938 16.035156 -8.597656 15.996094 -8.785156 C 15.882812 -10.0625 15.582031 -11.265625 15.019531 -12.28125 L 14.984375 -12.429688 C 14.230469 -13.820312 12.878906 -15.171875 11.191406 -16.261719 C 12.542969 -17.125 13.59375 -18.101562 14.269531 -19.152344 L 14.308594 -19.300781 C 14.871094 -20.242188 15.171875 -21.328125 15.285156 -22.378906 C 15.320312 -22.570312 15.320312 -22.832031 15.320312 -23.058594 C 15.320312 -23.882812 15.097656 -24.785156 14.71875 -25.609375 C 14.230469 -26.699219 13.40625 -27.636719 12.242188 -28.425781 C 11.039062 -29.253906 9.425781 -29.890625 7.546875 -30.265625 C 6.835938 -30.378906 6.160156 -30.453125 5.484375 -30.453125 C 4.769531 -30.453125 4.128906 -30.378906 3.53125 -30.230469 C 2.964844 -30.042969 2.476562 -29.816406 2.140625 -29.441406 C 1.839844 -29.140625 1.578125 -28.726562 1.578125 -28.277344 L 1.578125 -26.847656 C 1.539062 -26.511719 1.503906 -26.171875 1.503906 -25.761719 L 1.503906 -23.167969 C 1.503906 -22.644531 1.539062 -22.15625 1.539062 -21.628906 L 1.539062 -21.40625 C 1.539062 -19.902344 1.578125 -18.4375 1.578125 -16.972656 C 1.578125 -16.261719 1.613281 -15.359375 1.613281 -14.457031 L 1.613281 -14.15625 C 1.613281 -13.105469 1.652344 -11.941406 1.652344 -10.816406 C 1.652344 -9.6875 1.652344 -8.597656 1.613281 -7.511719 C 1.613281 -7.171875 1.613281 -6.757812 1.578125 -6.347656 C 1.539062 -5.707031 1.503906 -5.105469 1.503906 -4.507812 L 1.503906 -3.792969 C 1.503906 -2.816406 1.691406 -1.988281 2.027344 -1.390625 C 2.441406 -0.636719 3.078125 0 3.941406 0 L 4.242188 0 C 4.84375 0.148438 5.484375 0.226562 6.195312 0.226562 Z M 7.058594 -18.851562 C 7.058594 -19 7.097656 -19.226562 7.097656 -19.414062 L 7.097656 -19.453125 C 7.097656 -19.5625 7.097656 -19.753906 7.136719 -19.863281 L 7.136719 -20.164062 C 7.136719 -20.953125 7.171875 -21.855469 7.171875 -22.679688 C 7.171875 -23.808594 7.058594 -25.007812 7.058594 -26.097656 L 7.058594 -26.398438 C 7.058594 -26.585938 7.097656 -26.738281 7.136719 -26.847656 C 7.171875 -27.113281 7.285156 -27.1875 7.433594 -27.261719 C 7.511719 -27.261719 7.546875 -27.300781 7.546875 -27.300781 C 7.8125 -27.300781 8.074219 -27.226562 8.488281 -27.113281 C 10.328125 -26.359375 11.492188 -25.046875 11.679688 -23.394531 L 11.679688 -22.832031 C 11.679688 -22.269531 11.601562 -21.816406 11.414062 -21.292969 C 11.039062 -20.164062 10.289062 -19.152344 9.125 -18.289062 C 8.636719 -17.988281 8.300781 -17.835938 8.074219 -17.722656 C 7.734375 -17.835938 7.433594 -17.910156 7.171875 -17.949219 L 7.097656 -18.175781 C 7.058594 -18.4375 7.058594 -18.625 7.058594 -18.851562 Z M 7.171875 -4.355469 L 7.171875 -4.617188 C 7.171875 -5.894531 7.285156 -7.210938 7.285156 -8.488281 C 7.285156 -9.464844 7.246094 -10.402344 7.246094 -11.339844 L 7.246094 -11.679688 C 7.210938 -11.792969 7.210938 -12.015625 7.210938 -12.128906 L 7.210938 -12.167969 C 7.210938 -12.355469 7.171875 -12.617188 7.171875 -12.84375 C 7.171875 -13.105469 7.171875 -13.332031 7.210938 -13.554688 C 7.246094 -13.78125 7.398438 -14.121094 7.734375 -14.15625 L 7.773438 -14.15625 C 7.886719 -14.15625 8.375 -14.121094 9.5 -13.40625 C 10.816406 -12.46875 11.679688 -11.304688 12.089844 -10.101562 C 12.316406 -9.5 12.390625 -8.9375 12.390625 -8.335938 L 12.390625 -7.734375 C 12.167969 -5.859375 10.851562 -4.394531 8.785156 -3.53125 C 8.335938 -3.378906 8.035156 -3.304688 7.734375 -3.304688 C 7.734375 -3.304688 7.699219 -3.34375 7.585938 -3.34375 C 7.433594 -3.417969 7.285156 -3.53125 7.246094 -3.753906 C 7.210938 -3.90625 7.171875 -4.167969 7.171875 -4.355469 Z M 7.171875 -4.355469 "/></g></g></g><g fill="#382210" fill-opacity="1"><g transform="translate(202.249843, 275.381534)"><g><path d="M 9.5 0 C 10.402344 0 11.226562 -0.0390625 11.902344 -0.0742188 C 13.03125 -0.1875 13.742188 -0.527344 14.15625 -1.089844 L 14.15625 -1.125 C 14.308594 -1.464844 14.417969 -1.765625 14.417969 -2.027344 C 14.417969 -2.328125 14.308594 -2.628906 14.15625 -2.890625 C 14.15625 -2.929688 14.121094 -2.929688 14.121094 -2.929688 C 13.820312 -3.492188 13.292969 -3.792969 12.542969 -3.792969 L 12.503906 -3.792969 L 11.453125 -3.71875 C 11.039062 -3.679688 10.664062 -3.679688 10.214844 -3.679688 C 9.800781 -3.679688 9.425781 -3.679688 9.011719 -3.71875 C 7.886719 -3.980469 7.171875 -4.996094 6.945312 -6.648438 C 6.945312 -6.796875 6.910156 -6.871094 6.910156 -6.984375 C 6.835938 -7.660156 6.570312 -10.816406 6.570312 -11.152344 L 6.609375 -12.203125 C 6.609375 -12.878906 7.433594 -12.917969 8.109375 -12.917969 L 9.875 -12.917969 C 10.175781 -12.878906 10.4375 -12.878906 10.664062 -12.878906 L 10.964844 -12.878906 C 12.089844 -12.878906 12.46875 -13.632812 12.65625 -14.15625 C 12.730469 -14.34375 12.730469 -14.53125 12.730469 -14.683594 C 12.730469 -15.207031 12.578125 -15.621094 12.167969 -16.035156 L 12.128906 -16.070312 C 11.828125 -16.410156 11.265625 -16.449219 10.816406 -16.449219 L 9.238281 -16.449219 C 9.085938 -16.449219 8.976562 -16.410156 8.863281 -16.410156 C 8.5625 -16.410156 8.335938 -16.410156 8.109375 -16.371094 L 7.660156 -16.371094 C 7.324219 -16.371094 7.136719 -16.410156 6.984375 -16.484375 L 6.945312 -16.523438 C 6.835938 -16.597656 6.683594 -16.824219 6.683594 -17.648438 C 6.722656 -17.835938 6.722656 -17.988281 6.722656 -18.175781 C 6.796875 -18.398438 6.796875 -18.589844 6.796875 -18.738281 L 6.796875 -18.777344 C 6.835938 -20.503906 6.984375 -22.230469 7.023438 -23.996094 L 7.023438 -24.371094 C 7.058594 -25.308594 7.324219 -25.949219 7.699219 -26.136719 C 8.074219 -26.285156 8.488281 -26.359375 9.011719 -26.359375 C 9.199219 -26.359375 9.386719 -26.324219 9.539062 -26.324219 L 11.039062 -26.324219 C 12.128906 -26.324219 12.765625 -26.625 13.179688 -27.074219 C 13.519531 -27.414062 13.667969 -27.75 13.667969 -28.125 C 13.667969 -28.3125 13.667969 -28.425781 13.59375 -28.613281 C 13.179688 -30.304688 9.800781 -30.042969 8.074219 -30.042969 L 5.332031 -30.042969 C 4.769531 -30.042969 4.320312 -30.003906 3.941406 -29.929688 C 3.230469 -29.816406 2.703125 -29.476562 2.328125 -28.800781 C 2.027344 -28.238281 1.839844 -27.375 1.800781 -26.097656 L 1.800781 -25.574219 L 1.613281 -22.457031 C 1.503906 -19.789062 1.652344 -16.9375 1.613281 -14.121094 L 1.578125 -13.820312 C 1.539062 -11.078125 1.351562 -8.449219 1.726562 -6.082031 C 1.839844 -4.996094 2.066406 -3.753906 2.554688 -2.703125 C 3.117188 -1.652344 3.867188 -0.902344 4.957031 -0.488281 L 4.996094 -0.488281 C 5.933594 -0.1875 7.023438 -0.0390625 8.410156 -0.0390625 C 8.785156 0 9.164062 0 9.5 0 Z M 9.5 0 "/></g></g></g><g fill="#382210" fill-opacity="1"><g transform="translate(218.170372, 275.381534)"><g><path d="M 3.90625 0 C 4.84375 0 5.632812 -0.300781 6.160156 -0.902344 C 6.609375 -1.425781 6.910156 -2.179688 7.023438 -3.15625 C 7.171875 -4.542969 7.359375 -5.859375 7.546875 -7.171875 L 14.007812 -7.886719 C 14.195312 -6.421875 14.382812 -4.695312 14.570312 -2.667969 C 14.644531 -2.066406 14.832031 -1.578125 15.132812 -1.125 C 15.433594 -0.714844 15.808594 -0.527344 16.335938 -0.527344 L 16.710938 -0.527344 C 17.574219 -0.789062 18.136719 -1.351562 18.289062 -2.253906 C 18.363281 -2.667969 18.398438 -3.042969 18.398438 -3.492188 C 18.398438 -3.792969 18.398438 -4.019531 18.363281 -4.320312 L 18.210938 -5.632812 C 17.800781 -9.539062 17.273438 -14.382812 16.371094 -18.738281 C 15.320312 -23.996094 14.007812 -27.300781 12.355469 -28.953125 C 11.453125 -29.703125 10.628906 -30.042969 9.761719 -30.042969 C 9.613281 -30.042969 9.425781 -30.042969 9.238281 -30.003906 C 8.1875 -29.851562 7.398438 -29.175781 6.683594 -27.9375 C 5.558594 -25.496094 4.542969 -21.855469 3.566406 -16.671875 C 2.742188 -12.390625 2.101562 -7.8125 1.539062 -3.492188 C 1.503906 -3.191406 1.503906 -2.929688 1.503906 -2.703125 C 1.503906 -2.066406 1.613281 -1.578125 1.839844 -1.125 C 2.289062 -0.261719 3.191406 -0.0390625 3.90625 0 Z M 8.148438 -10.777344 C 8.863281 -15.285156 9.988281 -21.140625 10.703125 -24.519531 L 10.777344 -24.558594 C 10.816406 -24.484375 10.890625 -24.371094 11.003906 -24.070312 C 12.015625 -21.59375 12.957031 -15.285156 13.519531 -11.492188 L 13.554688 -11.304688 Z M 8.148438 -10.777344 "/></g></g></g><g fill="#382210" fill-opacity="1"><g transform="translate(238.071039, 275.381534)"><g><path d="M 3.980469 0 L 4.019531 0 C 5.746094 0 6.757812 -0.902344 6.984375 -2.589844 C 7.023438 -3.003906 7.058594 -3.417969 7.058594 -3.90625 C 7.058594 -4.128906 7.058594 -4.394531 7.023438 -4.65625 C 6.910156 -7.585938 6.835938 -13.445312 6.835938 -17.125 L 6.835938 -18.550781 C 7.886719 -15.773438 9.238281 -12.242188 9.464844 -11.753906 C 10.0625 -10.4375 10.664062 -8.898438 11.265625 -7.171875 L 11.265625 -7.136719 L 11.378906 -6.910156 C 11.378906 -6.871094 11.378906 -6.871094 11.414062 -6.835938 L 13.105469 -1.765625 C 13.554688 -0.375 14.007812 0.261719 15.808594 0 L 16.523438 0 C 17.460938 0 17.6875 -1.726562 17.800781 -2.140625 C 18.023438 -3.117188 17.949219 -4.207031 17.988281 -5.371094 C 18.0625 -7.171875 18.101562 -9.164062 18.101562 -11.339844 L 18.101562 -13.367188 C 18.101562 -15.695312 17.949219 -18.363281 17.800781 -20.917969 C 17.800781 -21.554688 17.761719 -22.230469 17.722656 -22.867188 C 17.6875 -23.46875 17.648438 -25.273438 17.648438 -25.910156 L 17.648438 -26.886719 C 17.648438 -27.226562 17.648438 -27.5625 17.613281 -27.9375 C 17.574219 -28.539062 17.460938 -29.027344 17.234375 -29.367188 C 16.9375 -29.851562 16.523438 -30.078125 15.960938 -30.078125 C 14.15625 -30.078125 13.707031 -29.140625 13.667969 -28.3125 C 13.632812 -28.125 13.632812 -27.9375 13.632812 -27.714844 C 13.632812 -27.5625 13.667969 -27.375 13.667969 -27.148438 L 13.667969 -27.074219 C 13.667969 -24.707031 14.269531 -21.214844 14.269531 -18.925781 L 14.269531 -18.886719 C 14.269531 -17.046875 14.230469 -15.320312 14.230469 -11.492188 L 14.230469 -11.339844 C 14.230469 -10.925781 14.269531 -10.027344 14.230469 -9.613281 C 12.089844 -15.097656 9.425781 -22.605469 8.976562 -23.65625 L 8.710938 -24.257812 C 8.597656 -24.558594 8.488281 -24.933594 8.375 -25.308594 L 8.261719 -25.535156 C 7.511719 -27.5625 6.648438 -29.851562 4.242188 -29.929688 C 2.816406 -29.929688 1.878906 -29.066406 1.613281 -27.449219 C 1.539062 -26.925781 1.503906 -26.398438 1.503906 -25.949219 L 1.503906 -22.832031 L 1.539062 -18.324219 C 1.539062 -16.558594 1.613281 -11.902344 1.613281 -9.914062 C 1.613281 -8.410156 1.613281 -6.871094 1.578125 -5.40625 C 1.539062 -5.183594 1.539062 -4.917969 1.539062 -4.695312 C 1.503906 -4.394531 1.503906 -4.054688 1.503906 -3.71875 C 1.503906 -3.417969 1.503906 -3.078125 1.539062 -2.703125 C 1.691406 -1.050781 2.515625 0 3.980469 0 Z M 3.980469 0 "/></g></g></g><g fill="#382210" fill-opacity="1"><g transform="translate(257.671322, 275.381534)"><g><path d="M 6.234375 0 L 6.835938 0 C 8 0 9.050781 -0.148438 9.949219 -0.414062 C 12.691406 -1.164062 14.683594 -5.445312 14.34375 -7.546875 C 14.15625 -10.476562 12.46875 -12.804688 10.851562 -14.796875 C 10.0625 -15.734375 9.386719 -16.785156 8.710938 -17.910156 L 8.675781 -17.910156 C 8.109375 -18.777344 7.621094 -19.714844 7.097656 -20.953125 C 6.722656 -21.855469 6.648438 -22.792969 6.648438 -23.808594 C 6.648438 -24.785156 6.757812 -24.671875 7.285156 -25.421875 C 8.375 -26.699219 9.464844 -25.910156 10.515625 -25.121094 C 11.039062 -24.707031 11.527344 -24.445312 11.980469 -24.296875 C 12.167969 -24.222656 12.28125 -24.222656 12.390625 -24.222656 C 12.804688 -24.222656 13.21875 -24.484375 13.519531 -24.898438 C 13.667969 -25.121094 13.742188 -25.386719 13.78125 -25.722656 C 13.78125 -25.984375 13.707031 -26.285156 13.554688 -26.550781 C 13.144531 -27.601562 12.242188 -28.425781 11.601562 -28.839844 C 10.363281 -29.628906 9.050781 -30.078125 7.734375 -30.078125 C 7.359375 -30.078125 6.910156 -30.003906 6.535156 -29.929688 C 4.882812 -29.554688 3.492188 -28.6875 2.476562 -27.261719 C 1.800781 -26.359375 1.425781 -25.195312 1.351562 -23.84375 C 1.125 -20.617188 3.453125 -16.636719 6.496094 -12.242188 L 7.621094 -10.628906 L 7.660156 -10.628906 C 8.335938 -9.726562 8.785156 -8.75 9.011719 -7.8125 C 9.050781 -7.398438 9.085938 -7.097656 9.050781 -6.796875 C 9.050781 -5.144531 7.511719 -3.378906 6.269531 -3.378906 L 6.160156 -3.378906 C 5.632812 -3.378906 4.996094 -3.753906 4.28125 -4.394531 L 3.492188 -5.03125 C 3.191406 -5.21875 2.890625 -5.292969 2.554688 -5.292969 C 2.515625 -5.292969 2.441406 -5.292969 2.328125 -5.257812 C 1.765625 -5.183594 1.539062 -4.582031 1.390625 -4.429688 L 1.351562 -4.394531 C 1.203125 -4.09375 1.125 -3.792969 1.125 -3.492188 C 1.089844 -2.964844 1.238281 -2.515625 1.539062 -2.140625 C 1.953125 -1.539062 2.476562 -1.089844 3.15625 -0.75 C 4.207031 -0.226562 5.03125 0 6.234375 0 Z M 6.234375 0 "/></g></g></g><g fill="#7a4e39" fill-opacity="1"><g transform="translate(159.31263, 300.276392)"><g><path d="M 5.042969 0 C 5.792969 0 6.546875 -0.25 7.242188 -0.792969 L 7.261719 -0.792969 C 8.324219 -1.660156 8.691406 -3.167969 8.808594 -3.765625 C 8.847656 -3.960938 8.867188 -4.171875 8.886719 -4.480469 L 8.886719 -4.539062 C 8.886719 -4.808594 8.847656 -5.042969 8.730469 -5.253906 C 8.574219 -5.503906 8.34375 -5.660156 8.035156 -5.660156 L 7.996094 -5.660156 C 7.300781 -5.5625 7.164062 -4.847656 7.089844 -4.152344 C 6.933594 -3.285156 6.742188 -2.511719 6.046875 -2.046875 C 5.851562 -1.96875 5.699219 -1.929688 5.542969 -1.929688 C 5.351562 -1.929688 5.175781 -1.988281 5.023438 -2.105469 C 4.363281 -2.703125 4.035156 -3.902344 3.902344 -4.558594 C 3.765625 -5.136719 3.667969 -5.910156 3.59375 -6.835938 C 3.535156 -7.300781 3.496094 -7.824219 3.496094 -8.441406 C 3.496094 -8.867188 3.515625 -9.269531 3.535156 -9.695312 C 3.613281 -10.757812 3.804688 -11.609375 4.074219 -12.285156 C 4.382812 -13 4.808594 -13.5 5.332031 -13.734375 L 5.484375 -13.789062 L 5.621094 -13.828125 L 5.640625 -13.828125 C 5.71875 -13.867188 5.832031 -13.886719 5.910156 -13.886719 C 6.085938 -13.886719 6.21875 -13.828125 6.375 -13.714844 L 6.566406 -13.5 C 6.703125 -13.289062 6.816406 -12.980469 6.914062 -12.613281 C 7.089844 -11.878906 7.359375 -11.085938 8.054688 -10.972656 L 8.074219 -10.972656 C 8.246094 -10.972656 8.574219 -11.027344 8.691406 -11.355469 C 8.769531 -11.550781 8.808594 -11.761719 8.808594 -11.976562 L 8.808594 -12.035156 C 8.808594 -12.285156 8.789062 -12.457031 8.75 -12.632812 C 8.519531 -13.773438 8.113281 -14.582031 7.550781 -15.046875 C 7.070312 -15.433594 6.375 -15.664062 5.484375 -15.664062 C 5.3125 -15.664062 5.136719 -15.664062 4.925781 -15.644531 C 4.074219 -15.527344 3.359375 -15.179688 2.78125 -14.679688 C 2.261719 -14.195312 1.835938 -13.578125 1.546875 -12.785156 C 1.253906 -12.015625 1.042969 -11.222656 0.945312 -10.46875 C 0.851562 -9.773438 0.792969 -8.902344 0.773438 -7.917969 L 0.773438 -7.667969 C 0.773438 -6.761719 0.832031 -5.832031 0.984375 -4.789062 C 1.160156 -3.667969 1.46875 -2.703125 1.894531 -1.949219 C 2.375 -1.101562 2.992188 -0.503906 3.765625 -0.210938 C 4.152344 -0.078125 4.597656 0 5.042969 0 Z M 5.042969 0 "/></g></g></g><g fill="#7a4e39" fill-opacity="1"><g transform="translate(168.583799, 300.276392)"><g><path d="M 5.15625 0 C 5.792969 0 6.355469 -0.136719 6.816406 -0.40625 C 7.4375 -0.753906 7.976562 -1.292969 8.402344 -1.988281 C 8.769531 -2.589844 9.078125 -3.320312 9.289062 -4.152344 L 9.289062 -4.171875 C 9.5625 -5.464844 9.714844 -6.742188 9.714844 -7.957031 C 9.714844 -8.847656 9.636719 -9.773438 9.484375 -10.777344 C 9.367188 -11.492188 9.195312 -12.167969 8.960938 -12.765625 C 8.671875 -13.480469 8.304688 -14.082031 7.859375 -14.542969 C 7.359375 -15.046875 6.703125 -15.335938 5.871094 -15.433594 C 5.699219 -15.453125 5.523438 -15.472656 5.351562 -15.472656 C 4.75 -15.472656 4.210938 -15.375 3.726562 -15.144531 C 3.109375 -14.890625 2.589844 -14.449219 2.125 -13.773438 L 2.105469 -13.773438 C 1.546875 -12.902344 1.179688 -11.898438 0.984375 -10.679688 C 0.832031 -9.871094 0.773438 -9 0.773438 -8.09375 C 0.773438 -7.785156 0.792969 -7.476562 0.8125 -7.128906 L 0.8125 -7.070312 C 0.871094 -5.851562 1.042969 -4.769531 1.3125 -3.824219 C 1.679688 -2.472656 2.164062 -1.507812 2.800781 -0.871094 C 3.207031 -0.464844 3.726562 -0.191406 4.363281 -0.0976562 C 4.617188 -0.0390625 4.886719 0 5.15625 0 Z M 3.59375 -8.191406 C 3.59375 -8.441406 3.59375 -8.710938 3.613281 -8.980469 C 3.667969 -10.160156 3.824219 -11.125 4.054688 -11.917969 C 4.328125 -12.671875 4.808594 -13.308594 5.332031 -13.617188 C 5.484375 -13.714844 5.660156 -13.753906 5.832031 -13.753906 C 5.949219 -13.753906 6.105469 -13.734375 6.257812 -13.675781 C 6.761719 -13.441406 7.148438 -12.921875 7.417969 -12.089844 C 7.667969 -11.339844 7.824219 -10.351562 7.859375 -9.15625 C 7.878906 -8.847656 7.878906 -8.554688 7.878906 -8.246094 C 7.878906 -7.550781 7.859375 -6.816406 7.785156 -6.046875 C 7.707031 -5.253906 7.589844 -4.363281 7.4375 -3.785156 L 7.320312 -3.476562 C 7.128906 -2.972656 6.855469 -2.570312 6.507812 -2.242188 C 6.238281 -1.96875 5.96875 -1.835938 5.679688 -1.835938 C 5.660156 -1.835938 5.640625 -1.835938 5.621094 -1.855469 L 5.5625 -1.855469 C 5.234375 -1.894531 4.90625 -2.203125 4.597656 -2.78125 C 4.210938 -3.515625 3.941406 -4.441406 3.765625 -5.582031 C 3.652344 -6.453125 3.59375 -7.320312 3.59375 -8.191406 Z M 3.59375 -8.191406 "/></g></g></g><g fill="#7a4e39" fill-opacity="1"><g transform="translate(179.071806, 300.276392)"><g><path d="M 2.066406 0 L 2.144531 0 C 2.761719 -0.0390625 3.167969 -0.289062 3.359375 -0.753906 C 3.535156 -1.179688 3.613281 -1.582031 3.613281 -1.988281 L 3.613281 -2.183594 C 3.59375 -2.78125 3.59375 -3.265625 3.59375 -3.652344 L 3.59375 -3.667969 C 3.574219 -3.84375 3.574219 -4.074219 3.574219 -4.308594 C 3.574219 -4.5 3.554688 -4.710938 3.554688 -4.925781 L 3.554688 -5.679688 C 3.554688 -5.773438 3.554688 -5.929688 3.535156 -6.085938 L 3.535156 -6.488281 C 3.535156 -6.953125 3.613281 -7.089844 3.652344 -7.109375 C 3.785156 -7.203125 3.980469 -7.242188 4.25 -7.242188 L 4.363281 -7.242188 C 4.460938 -7.242188 4.558594 -7.242188 4.675781 -7.222656 C 4.828125 -7.203125 4.964844 -7.203125 5.078125 -7.203125 C 5.332031 -7.203125 5.542969 -7.222656 5.792969 -7.261719 C 6.199219 -7.339844 6.433594 -7.667969 6.433594 -8.132812 L 6.433594 -8.207031 C 6.375 -8.59375 6.179688 -8.847656 5.851562 -8.941406 C 5.660156 -9 5.464844 -9.039062 5.234375 -9.039062 C 5.175781 -9.039062 5.078125 -9.039062 4.984375 -9.019531 L 4.828125 -9.019531 C 4.75 -9.019531 4.65625 -9.019531 4.519531 -8.980469 L 3.941406 -8.980469 C 3.941406 -9 3.921875 -9 3.921875 -9 C 3.765625 -9 3.667969 -9.078125 3.59375 -9.195312 C 3.574219 -9.308594 3.554688 -9.5625 3.554688 -9.851562 L 3.554688 -11.261719 C 3.554688 -11.394531 3.554688 -11.53125 3.535156 -11.6875 L 3.535156 -12.632812 C 3.535156 -12.980469 3.574219 -13.25 3.632812 -13.40625 C 3.707031 -13.539062 3.882812 -13.617188 4.132812 -13.636719 L 4.152344 -13.636719 C 4.308594 -13.65625 4.460938 -13.65625 4.636719 -13.65625 C 4.769531 -13.65625 4.925781 -13.65625 5.078125 -13.636719 C 5.214844 -13.617188 5.332031 -13.617188 5.445312 -13.617188 L 5.464844 -13.617188 C 5.738281 -13.617188 5.988281 -13.695312 6.160156 -13.847656 C 6.355469 -14.003906 6.453125 -14.195312 6.453125 -14.484375 L 6.453125 -14.621094 C 6.453125 -14.640625 6.453125 -14.660156 6.433594 -14.679688 C 6.375 -15.007812 6.160156 -15.277344 5.851562 -15.355469 L 5.832031 -15.355469 C 5.660156 -15.394531 5.484375 -15.433594 5.292969 -15.433594 C 5.214844 -15.433594 5.117188 -15.433594 5.023438 -15.414062 L 4.808594 -15.414062 C 4.519531 -15.414062 4.191406 -15.414062 3.804688 -15.433594 C 3.4375 -15.453125 3.128906 -15.453125 2.839844 -15.453125 C 2.433594 -15.453125 2.066406 -15.433594 1.757812 -15.414062 C 1.757812 -15.394531 1.738281 -15.394531 1.71875 -15.394531 C 1.253906 -15.277344 0.984375 -14.949219 0.886719 -14.46875 C 0.8125 -14.101562 0.773438 -13.808594 0.773438 -13.5 C 0.773438 -13.269531 0.773438 -12.515625 0.792969 -11.242188 C 0.8125 -9.832031 0.8125 -7.785156 0.8125 -5.15625 L 0.792969 -2.625 L 0.792969 -2.296875 C 0.773438 -2.125 0.773438 -2.007812 0.773438 -1.855469 C 0.773438 -1.679688 0.773438 -1.46875 0.792969 -1.273438 C 0.8125 -0.945312 0.925781 -0.617188 1.121094 -0.367188 C 1.3125 -0.117188 1.621094 0 2.066406 0 Z M 2.066406 0 "/></g></g></g><g fill="#7a4e39" fill-opacity="1"><g transform="translate(186.10244, 300.276392)"><g><path d="M 2.066406 0 L 2.144531 0 C 2.761719 -0.0390625 3.167969 -0.289062 3.359375 -0.753906 C 3.535156 -1.179688 3.613281 -1.582031 3.613281 -1.988281 L 3.613281 -2.183594 C 3.59375 -2.78125 3.59375 -3.265625 3.59375 -3.652344 L 3.59375 -3.667969 C 3.574219 -3.84375 3.574219 -4.074219 3.574219 -4.308594 C 3.574219 -4.5 3.554688 -4.710938 3.554688 -4.925781 L 3.554688 -5.679688 C 3.554688 -5.773438 3.554688 -5.929688 3.535156 -6.085938 L 3.535156 -6.488281 C 3.535156 -6.953125 3.613281 -7.089844 3.652344 -7.109375 C 3.785156 -7.203125 3.980469 -7.242188 4.25 -7.242188 L 4.363281 -7.242188 C 4.460938 -7.242188 4.558594 -7.242188 4.675781 -7.222656 C 4.828125 -7.203125 4.964844 -7.203125 5.078125 -7.203125 C 5.332031 -7.203125 5.542969 -7.222656 5.792969 -7.261719 C 6.199219 -7.339844 6.433594 -7.667969 6.433594 -8.132812 L 6.433594 -8.207031 C 6.375 -8.59375 6.179688 -8.847656 5.851562 -8.941406 C 5.660156 -9 5.464844 -9.039062 5.234375 -9.039062 C 5.175781 -9.039062 5.078125 -9.039062 4.984375 -9.019531 L 4.828125 -9.019531 C 4.75 -9.019531 4.65625 -9.019531 4.519531 -8.980469 L 3.941406 -8.980469 C 3.941406 -9 3.921875 -9 3.921875 -9 C 3.765625 -9 3.667969 -9.078125 3.59375 -9.195312 C 3.574219 -9.308594 3.554688 -9.5625 3.554688 -9.851562 L 3.554688 -11.261719 C 3.554688 -11.394531 3.554688 -11.53125 3.535156 -11.6875 L 3.535156 -12.632812 C 3.535156 -12.980469 3.574219 -13.25 3.632812 -13.40625 C 3.707031 -13.539062 3.882812 -13.617188 4.132812 -13.636719 L 4.152344 -13.636719 C 4.308594 -13.65625 4.460938 -13.65625 4.636719 -13.65625 C 4.769531 -13.65625 4.925781 -13.65625 5.078125 -13.636719 C 5.214844 -13.617188 5.332031 -13.617188 5.445312 -13.617188 L 5.464844 -13.617188 C 5.738281 -13.617188 5.988281 -13.695312 6.160156 -13.847656 C 6.355469 -14.003906 6.453125 -14.195312 6.453125 -14.484375 L 6.453125 -14.621094 C 6.453125 -14.640625 6.453125 -14.660156 6.433594 -14.679688 C 6.375 -15.007812 6.160156 -15.277344 5.851562 -15.355469 L 5.832031 -15.355469 C 5.660156 -15.394531 5.484375 -15.433594 5.292969 -15.433594 C 5.214844 -15.433594 5.117188 -15.433594 5.023438 -15.414062 L 4.808594 -15.414062 C 4.519531 -15.414062 4.191406 -15.414062 3.804688 -15.433594 C 3.4375 -15.453125 3.128906 -15.453125 2.839844 -15.453125 C 2.433594 -15.453125 2.066406 -15.433594 1.757812 -15.414062 C 1.757812 -15.394531 1.738281 -15.394531 1.71875 -15.394531 C 1.253906 -15.277344 0.984375 -14.949219 0.886719 -14.46875 C 0.8125 -14.101562 0.773438 -13.808594 0.773438 -13.5 C 0.773438 -13.269531 0.773438 -12.515625 0.792969 -11.242188 C 0.8125 -9.832031 0.8125 -7.785156 0.8125 -5.15625 L 0.792969 -2.625 L 0.792969 -2.296875 C 0.773438 -2.125 0.773438 -2.007812 0.773438 -1.855469 C 0.773438 -1.679688 0.773438 -1.46875 0.792969 -1.273438 C 0.8125 -0.945312 0.925781 -0.617188 1.121094 -0.367188 C 1.3125 -0.117188 1.621094 0 2.066406 0 Z M 2.066406 0 "/></g></g></g><g fill="#7a4e39" fill-opacity="1"><g transform="translate(193.133073, 300.276392)"><g><path d="M 4.886719 0 C 5.351562 0 5.773438 -0.0195312 6.121094 -0.0390625 C 6.703125 -0.0976562 7.070312 -0.269531 7.28125 -0.558594 L 7.28125 -0.578125 C 7.359375 -0.753906 7.417969 -0.90625 7.417969 -1.042969 C 7.417969 -1.199219 7.359375 -1.351562 7.28125 -1.488281 C 7.28125 -1.507812 7.261719 -1.507812 7.261719 -1.507812 C 7.109375 -1.796875 6.835938 -1.949219 6.453125 -1.949219 L 6.433594 -1.949219 L 5.890625 -1.914062 C 5.679688 -1.894531 5.484375 -1.894531 5.253906 -1.894531 C 5.042969 -1.894531 4.847656 -1.894531 4.636719 -1.914062 C 4.054688 -2.046875 3.6875 -2.570312 3.574219 -3.417969 C 3.574219 -3.496094 3.554688 -3.535156 3.554688 -3.59375 C 3.515625 -3.941406 3.378906 -5.5625 3.378906 -5.738281 L 3.398438 -6.277344 C 3.398438 -6.625 3.824219 -6.644531 4.171875 -6.644531 L 5.078125 -6.644531 C 5.234375 -6.625 5.371094 -6.625 5.484375 -6.625 L 5.640625 -6.625 C 6.21875 -6.625 6.414062 -7.011719 6.507812 -7.28125 C 6.546875 -7.378906 6.546875 -7.476562 6.546875 -7.550781 C 6.546875 -7.824219 6.46875 -8.035156 6.257812 -8.246094 L 6.238281 -8.265625 C 6.085938 -8.441406 5.792969 -8.460938 5.5625 -8.460938 L 4.75 -8.460938 C 4.675781 -8.460938 4.617188 -8.441406 4.558594 -8.441406 C 4.402344 -8.441406 4.289062 -8.441406 4.171875 -8.421875 L 3.941406 -8.421875 C 3.765625 -8.421875 3.667969 -8.441406 3.59375 -8.480469 L 3.574219 -8.5 C 3.515625 -8.539062 3.4375 -8.652344 3.4375 -9.078125 C 3.457031 -9.175781 3.457031 -9.25 3.457031 -9.347656 C 3.496094 -9.464844 3.496094 -9.5625 3.496094 -9.636719 L 3.496094 -9.65625 C 3.515625 -10.546875 3.59375 -11.433594 3.613281 -12.34375 L 3.613281 -12.535156 C 3.632812 -13.019531 3.765625 -13.347656 3.960938 -13.441406 C 4.152344 -13.519531 4.363281 -13.558594 4.636719 -13.558594 C 4.730469 -13.558594 4.828125 -13.539062 4.90625 -13.539062 L 5.679688 -13.539062 C 6.238281 -13.539062 6.566406 -13.695312 6.78125 -13.925781 C 6.953125 -14.101562 7.03125 -14.273438 7.03125 -14.46875 C 7.03125 -14.5625 7.03125 -14.621094 6.992188 -14.71875 C 6.78125 -15.585938 5.042969 -15.453125 4.152344 -15.453125 L 2.742188 -15.453125 C 2.453125 -15.453125 2.222656 -15.433594 2.027344 -15.394531 C 1.660156 -15.335938 1.390625 -15.164062 1.199219 -14.816406 C 1.042969 -14.523438 0.945312 -14.082031 0.925781 -13.425781 L 0.925781 -13.152344 L 0.832031 -11.550781 C 0.773438 -10.179688 0.851562 -8.710938 0.832031 -7.261719 L 0.8125 -7.109375 C 0.792969 -5.699219 0.695312 -4.347656 0.886719 -3.128906 C 0.945312 -2.570312 1.0625 -1.929688 1.3125 -1.390625 C 1.601562 -0.851562 1.988281 -0.464844 2.550781 -0.25 L 2.570312 -0.25 C 3.050781 -0.0976562 3.613281 -0.0195312 4.328125 -0.0195312 C 4.519531 0 4.710938 0 4.886719 0 Z M 4.886719 0 "/></g></g></g><g fill="#7a4e39" fill-opacity="1"><g transform="translate(201.322596, 300.276392)"><g><path d="M 4.886719 0 C 5.351562 0 5.773438 -0.0195312 6.121094 -0.0390625 C 6.703125 -0.0976562 7.070312 -0.269531 7.28125 -0.558594 L 7.28125 -0.578125 C 7.359375 -0.753906 7.417969 -0.90625 7.417969 -1.042969 C 7.417969 -1.199219 7.359375 -1.351562 7.28125 -1.488281 C 7.28125 -1.507812 7.261719 -1.507812 7.261719 -1.507812 C 7.109375 -1.796875 6.835938 -1.949219 6.453125 -1.949219 L 6.433594 -1.949219 L 5.890625 -1.914062 C 5.679688 -1.894531 5.484375 -1.894531 5.253906 -1.894531 C 5.042969 -1.894531 4.847656 -1.894531 4.636719 -1.914062 C 4.054688 -2.046875 3.6875 -2.570312 3.574219 -3.417969 C 3.574219 -3.496094 3.554688 -3.535156 3.554688 -3.59375 C 3.515625 -3.941406 3.378906 -5.5625 3.378906 -5.738281 L 3.398438 -6.277344 C 3.398438 -6.625 3.824219 -6.644531 4.171875 -6.644531 L 5.078125 -6.644531 C 5.234375 -6.625 5.371094 -6.625 5.484375 -6.625 L 5.640625 -6.625 C 6.21875 -6.625 6.414062 -7.011719 6.507812 -7.28125 C 6.546875 -7.378906 6.546875 -7.476562 6.546875 -7.550781 C 6.546875 -7.824219 6.46875 -8.035156 6.257812 -8.246094 L 6.238281 -8.265625 C 6.085938 -8.441406 5.792969 -8.460938 5.5625 -8.460938 L 4.75 -8.460938 C 4.675781 -8.460938 4.617188 -8.441406 4.558594 -8.441406 C 4.402344 -8.441406 4.289062 -8.441406 4.171875 -8.421875 L 3.941406 -8.421875 C 3.765625 -8.421875 3.667969 -8.441406 3.59375 -8.480469 L 3.574219 -8.5 C 3.515625 -8.539062 3.4375 -8.652344 3.4375 -9.078125 C 3.457031 -9.175781 3.457031 -9.25 3.457031 -9.347656 C 3.496094 -9.464844 3.496094 -9.5625 3.496094 -9.636719 L 3.496094 -9.65625 C 3.515625 -10.546875 3.59375 -11.433594 3.613281 -12.34375 L 3.613281 -12.535156 C 3.632812 -13.019531 3.765625 -13.347656 3.960938 -13.441406 C 4.152344 -13.519531 4.363281 -13.558594 4.636719 -13.558594 C 4.730469 -13.558594 4.828125 -13.539062 4.90625 -13.539062 L 5.679688 -13.539062 C 6.238281 -13.539062 6.566406 -13.695312 6.78125 -13.925781 C 6.953125 -14.101562 7.03125 -14.273438 7.03125 -14.46875 C 7.03125 -14.5625 7.03125 -14.621094 6.992188 -14.71875 C 6.78125 -15.585938 5.042969 -15.453125 4.152344 -15.453125 L 2.742188 -15.453125 C 2.453125 -15.453125 2.222656 -15.433594 2.027344 -15.394531 C 1.660156 -15.335938 1.390625 -15.164062 1.199219 -14.816406 C 1.042969 -14.523438 0.945312 -14.082031 0.925781 -13.425781 L 0.925781 -13.152344 L 0.832031 -11.550781 C 0.773438 -10.179688 0.851562 -8.710938 0.832031 -7.261719 L 0.8125 -7.109375 C 0.792969 -5.699219 0.695312 -4.347656 0.886719 -3.128906 C 0.945312 -2.570312 1.0625 -1.929688 1.3125 -1.390625 C 1.601562 -0.851562 1.988281 -0.464844 2.550781 -0.25 L 2.570312 -0.25 C 3.050781 -0.0976562 3.613281 -0.0195312 4.328125 -0.0195312 C 4.519531 0 4.710938 0 4.886719 0 Z M 4.886719 0 "/></g></g></g><g fill="#7a4e39" fill-opacity="1"><g transform="translate(209.511459, 300.276392)"><g/></g></g><g fill="#382210" fill-opacity="1"><g transform="translate(133.856034, 317.008222)"><g><path d="M 0.234375 0 L 2.03125 -9.28125 L 9.34375 -9.28125 L 9.046875 -7.78125 L 3.6875 -7.78125 L 3.234375 -5.453125 L 8.1875 -5.453125 L 7.90625 -3.953125 L 2.953125 -3.953125 L 2.46875 -1.5 L 8.09375 -1.5 L 7.8125 0 Z M 0.234375 0 "/></g></g></g><g fill="#382210" fill-opacity="1"><g transform="translate(149.610465, 317.008222)"><g><path d="M 3.953125 0.125 C 2.773438 0.125 1.878906 -0.078125 1.265625 -0.484375 C 0.648438 -0.898438 0.285156 -1.539062 0.171875 -2.40625 L 2.0625 -2.734375 C 2.15625 -2.242188 2.363281 -1.882812 2.6875 -1.65625 C 3.007812 -1.4375 3.476562 -1.328125 4.09375 -1.328125 C 5.601562 -1.328125 6.359375 -1.765625 6.359375 -2.640625 C 6.359375 -2.992188 6.222656 -3.269531 5.953125 -3.46875 C 5.691406 -3.675781 5.171875 -3.878906 4.390625 -4.078125 C 3.585938 -4.285156 2.988281 -4.503906 2.59375 -4.734375 C 2.207031 -4.972656 1.910156 -5.257812 1.703125 -5.59375 C 1.503906 -5.9375 1.40625 -6.347656 1.40625 -6.828125 C 1.40625 -7.609375 1.75 -8.234375 2.4375 -8.703125 C 3.125 -9.179688 4.039062 -9.421875 5.1875 -9.421875 C 6.226562 -9.421875 7.066406 -9.226562 7.703125 -8.84375 C 8.335938 -8.46875 8.722656 -7.914062 8.859375 -7.1875 L 6.96875 -6.75 C 6.875 -7.144531 6.664062 -7.457031 6.34375 -7.6875 C 6.019531 -7.925781 5.597656 -8.046875 5.078125 -8.046875 C 4.535156 -8.046875 4.109375 -7.941406 3.796875 -7.734375 C 3.484375 -7.535156 3.328125 -7.257812 3.328125 -6.90625 C 3.328125 -6.695312 3.382812 -6.519531 3.5 -6.375 C 3.613281 -6.226562 3.78125 -6.097656 4 -5.984375 C 4.21875 -5.878906 4.648438 -5.738281 5.296875 -5.5625 C 5.992188 -5.375 6.507812 -5.191406 6.84375 -5.015625 C 7.175781 -4.847656 7.441406 -4.660156 7.640625 -4.453125 C 7.847656 -4.242188 8.003906 -4.003906 8.109375 -3.734375 C 8.210938 -3.460938 8.265625 -3.144531 8.265625 -2.78125 C 8.265625 -1.832031 7.898438 -1.109375 7.171875 -0.609375 C 6.441406 -0.117188 5.367188 0.125 3.953125 0.125 Z M 3.953125 0.125 "/></g></g></g><g fill="#382210" fill-opacity="1"><g transform="translate(165.364896, 317.008222)"><g><path d="M 5.90625 -7.78125 L 4.390625 0 L 2.4375 0 L 3.953125 -7.78125 L 0.953125 -7.78125 L 1.25 -9.28125 L 9.203125 -9.28125 L 8.90625 -7.78125 Z M 5.90625 -7.78125 "/></g></g></g><g fill="#382210" fill-opacity="1"><g transform="translate(180.36127, 317.008222)"><g><path d="M 0.296875 0 L 0.6875 -2.015625 L 2.59375 -2.015625 L 2.203125 0 Z M 0.296875 0 "/></g></g></g><g fill="#382210" fill-opacity="1"><g transform="translate(190.862039, 317.008222)"><g><path d="M -0.21875 0 L 0.03125 -1.28125 C 0.25 -1.65625 0.5 -2 0.78125 -2.3125 C 1.0625 -2.625 1.363281 -2.921875 1.6875 -3.203125 C 2.019531 -3.484375 2.585938 -3.90625 3.390625 -4.46875 C 4.035156 -4.914062 4.476562 -5.257812 4.71875 -5.5 C 4.957031 -5.738281 5.140625 -5.976562 5.265625 -6.21875 C 5.398438 -6.46875 5.46875 -6.726562 5.46875 -7 C 5.46875 -7.632812 5.109375 -7.953125 4.390625 -7.953125 C 4.003906 -7.953125 3.691406 -7.851562 3.453125 -7.65625 C 3.222656 -7.46875 3.046875 -7.160156 2.921875 -6.734375 L 1.171875 -7.125 C 1.398438 -7.914062 1.796875 -8.492188 2.359375 -8.859375 C 2.921875 -9.234375 3.644531 -9.421875 4.53125 -9.421875 C 5.445312 -9.421875 6.148438 -9.226562 6.640625 -8.84375 C 7.128906 -8.457031 7.375 -7.890625 7.375 -7.140625 C 7.375 -6.710938 7.28125 -6.304688 7.09375 -5.921875 C 6.90625 -5.546875 6.625 -5.175781 6.25 -4.8125 C 5.882812 -4.457031 5.285156 -4.003906 4.453125 -3.453125 C 3.878906 -3.054688 3.414062 -2.707031 3.0625 -2.40625 C 2.71875 -2.101562 2.453125 -1.804688 2.265625 -1.515625 L 6.578125 -1.515625 L 6.28125 0 Z M -0.21875 0 "/></g></g></g><g fill="#382210" fill-opacity="1"><g transform="translate(205.120129, 317.008222)"><g><path d="M 4.765625 -9.421875 C 6.503906 -9.421875 7.375 -8.398438 7.375 -6.359375 C 7.375 -5.847656 7.289062 -5.191406 7.125 -4.390625 C 6.488281 -1.378906 5.164062 0.125 3.15625 0.125 C 2.269531 0.125 1.613281 -0.128906 1.1875 -0.640625 C 0.769531 -1.160156 0.5625 -1.945312 0.5625 -3 C 0.5625 -3.601562 0.65625 -4.351562 0.84375 -5.25 C 1.039062 -6.15625 1.3125 -6.914062 1.65625 -7.53125 C 2.007812 -8.15625 2.441406 -8.625 2.953125 -8.9375 C 3.460938 -9.257812 4.066406 -9.421875 4.765625 -9.421875 Z M 3.28125 -1.328125 C 3.789062 -1.328125 4.203125 -1.5625 4.515625 -2.03125 C 4.828125 -2.507812 5.082031 -3.269531 5.28125 -4.3125 C 5.476562 -5.363281 5.578125 -6.070312 5.578125 -6.4375 C 5.578125 -7.457031 5.242188 -7.96875 4.578125 -7.96875 C 4.203125 -7.96875 3.894531 -7.863281 3.65625 -7.65625 C 3.414062 -7.457031 3.210938 -7.128906 3.046875 -6.671875 C 2.890625 -6.210938 2.734375 -5.53125 2.578125 -4.625 C 2.429688 -3.726562 2.359375 -3.097656 2.359375 -2.734375 C 2.359375 -1.796875 2.664062 -1.328125 3.28125 -1.328125 Z M 3.28125 -1.328125 "/></g></g></g><g fill="#382210" fill-opacity="1"><g transform="translate(219.378219, 317.008222)"><g><path d="M -0.21875 0 L 0.03125 -1.28125 C 0.25 -1.65625 0.5 -2 0.78125 -2.3125 C 1.0625 -2.625 1.363281 -2.921875 1.6875 -3.203125 C 2.019531 -3.484375 2.585938 -3.90625 3.390625 -4.46875 C 4.035156 -4.914062 4.476562 -5.257812 4.71875 -5.5 C 4.957031 -5.738281 5.140625 -5.976562 5.265625 -6.21875 C 5.398438 -6.46875 5.46875 -6.726562 5.46875 -7 C 5.46875 -7.632812 5.109375 -7.953125 4.390625 -7.953125 C 4.003906 -7.953125 3.691406 -7.851562 3.453125 -7.65625 C 3.222656 -7.46875 3.046875 -7.160156 2.921875 -6.734375 L 1.171875 -7.125 C 1.398438 -7.914062 1.796875 -8.492188 2.359375 -8.859375 C 2.921875 -9.234375 3.644531 -9.421875 4.53125 -9.421875 C 5.445312 -9.421875 6.148438 -9.226562 6.640625 -8.84375 C 7.128906 -8.457031 7.375 -7.890625 7.375 -7.140625 C 7.375 -6.710938 7.28125 -6.304688 7.09375 -5.921875 C 6.90625 -5.546875 6.625 -5.175781 6.25 -4.8125 C 5.882812 -4.457031 5.285156 -4.003906 4.453125 -3.453125 C 3.878906 -3.054688 3.414062 -2.707031 3.0625 -2.40625 C 2.71875 -2.101562 2.453125 -1.804688 2.265625 -1.515625 L 6.578125 -1.515625 L 6.28125 0 Z M -0.21875 0 "/></g></g></g><g fill="#382210" fill-opacity="1"><g transform="translate(233.636309, 317.008222)"><g><path d="M -0.21875 0 L 0.03125 -1.28125 C 0.25 -1.65625 0.5 -2 0.78125 -2.3125 C 1.0625 -2.625 1.363281 -2.921875 1.6875 -3.203125 C 2.019531 -3.484375 2.585938 -3.90625 3.390625 -4.46875 C 4.035156 -4.914062 4.476562 -5.257812 4.71875 -5.5 C 4.957031 -5.738281 5.140625 -5.976562 5.265625 -6.21875 C 5.398438 -6.46875 5.46875 -6.726562 5.46875 -7 C 5.46875 -7.632812 5.109375 -7.953125 4.390625 -7.953125 C 4.003906 -7.953125 3.691406 -7.851562 3.453125 -7.65625 C 3.222656 -7.46875 3.046875 -7.160156 2.921875 -6.734375 L 1.171875 -7.125 C 1.398438 -7.914062 1.796875 -8.492188 2.359375 -8.859375 C 2.921875 -9.234375 3.644531 -9.421875 4.53125 -9.421875 C 5.445312 -9.421875 6.148438 -9.226562 6.640625 -8.84375 C 7.128906 -8.457031 7.375 -7.890625 7.375 -7.140625 C 7.375 -6.710938 7.28125 -6.304688 7.09375 -5.921875 C 6.90625 -5.546875 6.625 -5.175781 6.25 -4.8125 C 5.882812 -4.457031 5.285156 -4.003906 4.453125 -3.453125 C 3.878906 -3.054688 3.414062 -2.707031 3.0625 -2.40625 C 2.71875 -2.101562 2.453125 -1.804688 2.265625 -1.515625 L 6.578125 -1.515625 L 6.28125 0 Z M -0.21875 0 "/></g></g></g></svg>